<svg width="24" height="24" viewBox="0 0 24 24" fill="none" xmlns="http://www.w3.org/2000/svg">
<g clip-path="url(#clip0_60_153)">
<path d="M12 24C18.6274 24 24 18.6274 24 12C24 5.37258 18.6274 0 12 0C5.37258 0 0 5.37258 0 12C0 18.6274 5.37258 24 12 24Z" fill="url(#paint0_linear_60_153)"/>
<path fill-rule="evenodd" clip-rule="evenodd" d="M16.8312 8.46961C16.7057 8.23053 16.5014 8.04227 16.2528 7.93681C16.0296 7.82314 15.7833 7.76238 15.5328 7.75921H8.5284C8.26403 7.74271 8.00066 7.80448 7.7712 7.93681C7.62606 7.98449 7.49188 8.06062 7.37649 8.16076C7.26111 8.26089 7.16684 8.38302 7.0992 8.52001C6.94827 8.77619 6.88271 9.07372 6.912 9.36961C6.93348 9.64282 7.03073 9.90462 7.1928 10.1256L11.5356 17.7096C11.5898 17.7889 11.6622 17.8541 11.7467 17.8996C11.8313 17.9451 11.9256 17.9697 12.0216 17.9712C12.1204 17.9794 12.2195 17.9592 12.3071 17.9128C12.3947 17.8664 12.4672 17.7959 12.516 17.7096L16.878 10.1256C17.0313 9.88682 17.1063 9.60623 17.0928 9.32281C17.0786 9.02096 16.9886 8.72754 16.8312 8.46961ZM11.4708 15.3432L8.1264 9.50641C8.04 9.32881 7.9956 9.24001 7.9956 9.24001C7.98306 9.16077 7.99878 9.07964 8.04 9.01081C8.07348 8.93051 8.13731 8.86669 8.2176 8.83321H11.4708V15.3432ZM15.9348 9.27241C15.9528 9.36191 15.9528 9.45411 15.9348 9.54361L12.516 15.372V8.87161H15.486C15.591 8.8601 15.6972 8.8758 15.7944 8.91721L15.8412 8.96401C15.888 8.96401 15.888 9.04801 15.9348 9.04801C15.9564 9.12126 15.9564 9.19916 15.9348 9.27241Z" fill="white"/>
</g>
<defs>
<linearGradient id="paint0_linear_60_153" x1="12" y1="24" x2="12" y2="0" gradientUnits="userSpaceOnUse">
<stop stop-color="#0072AB"/>
<stop offset="1" stop-color="#2EB9FF"/>
</linearGradient>
<clipPath id="clip0_60_153">
<rect width="24" height="24" fill="white"/>
</clipPath>
</defs>
</svg>
